<svg width="512" height="512" viewBox="0 0 512 512" fill="none" xmlns="http://www.w3.org/2000/svg">
<g clip-path="url(#clip0_1_2)">
<path d="M495.292 177.286C528.773 271.902 500.353 394.942 420.933 453.736C341.903 512.919 211.872 507.468 121.162 442.834C30.8417 378.199 -20.5476 254.38 10.9867 162.101C42.1317 70.2101 156.59 9.85831 261.704 12.9732C366.429 16.0882 461.811 82.2804 495.292 177.286Z" fill="url(#paint0_linear_1_2)"/>
<path d="M179.458 285.708C179.458 281.94 177.96 278.327 175.296 275.663C172.631 272.998 169.018 271.5 165.25 271.5H136.833V328.333C136.833 332.102 138.331 335.714 140.996 338.379C143.661 341.044 147.273 342.542 151.042 342.542H165.25C169.018 342.542 172.631 341.044 175.296 338.379C177.96 335.714 179.458 332.102 179.458 328.333V285.708ZM207.875 328.333C207.875 339.638 203.381 350.477 195.387 358.471C187.393 366.464 176.555 370.958 165.25 370.958H151.042C139.737 370.958 128.898 366.464 120.904 358.471C112.911 350.477 108.417 339.638 108.417 328.333V257.292C108.417 238.633 112.085 220.153 119.226 202.914C126.366 185.677 136.835 170.014 150.029 156.82C163.222 143.627 178.885 133.158 196.123 126.017C213.361 118.877 231.841 115.208 250.5 115.208C269.159 115.208 287.639 118.877 304.877 126.017C322.115 133.158 337.778 143.627 350.971 156.82C364.164 170.014 374.634 185.676 381.774 202.914C388.915 220.153 392.583 238.633 392.583 257.292V328.333C392.583 339.638 388.089 350.477 380.096 358.471C372.102 366.464 361.263 370.958 349.958 370.958H335.75C324.445 370.958 313.607 366.464 305.613 358.471C297.619 350.477 293.125 339.638 293.125 328.333V285.708C293.125 274.403 297.619 263.565 305.613 255.571C313.607 247.577 324.445 243.083 335.75 243.083H363.237C361.971 233.04 359.399 223.184 355.508 213.793C349.796 200.003 341.434 187.466 330.88 176.912C320.326 166.358 307.789 157.995 293.999 152.283C280.208 146.571 265.427 143.625 250.5 143.625C235.573 143.625 220.792 146.571 207.001 152.283C193.211 157.995 180.674 166.358 170.12 176.912C159.566 187.466 151.204 200.003 145.492 213.793C141.601 223.184 139.029 233.04 137.763 243.083H165.25C176.555 243.083 187.393 247.577 195.387 255.571C203.381 263.565 207.875 274.403 207.875 285.708V328.333ZM321.542 328.333C321.542 332.102 323.04 335.714 325.704 338.379C328.369 341.044 331.982 342.542 335.75 342.542H349.958C353.727 342.542 357.339 341.044 360.004 338.379C362.669 335.714 364.167 332.102 364.167 328.333V271.5H335.75C331.982 271.5 328.369 272.998 325.704 275.663C323.04 278.327 321.542 281.94 321.542 285.708V328.333Z" fill="white"/>
<path d="M364.167 356.75V328.333C364.167 320.486 370.528 314.125 378.375 314.125C386.222 314.125 392.583 320.486 392.583 328.333V356.75C392.583 375.591 385.093 393.656 371.77 406.979C358.447 420.302 340.383 427.792 321.542 427.792H250.5C242.653 427.792 236.292 421.43 236.292 413.583C236.292 405.736 242.653 399.375 250.5 399.375H321.542C332.846 399.375 343.685 394.881 351.679 386.887C359.673 378.893 364.167 368.055 364.167 356.75Z" fill="white"/>
<path d="M250.629 248.167C257.924 248.167 263.837 254.062 263.837 261.333C263.837 268.605 257.924 274.5 250.629 274.5H250.5C243.205 274.5 237.292 268.605 237.292 261.333C237.292 254.062 243.205 248.167 250.5 248.167H250.629Z" fill="white"/>
<path d="M250.5 50.6711C302.483 50.6711 352.647 69.7689 391.393 104.315C396.829 109.163 397.288 117.488 392.425 122.908C387.562 128.326 379.21 128.796 373.773 123.949C339.871 93.7214 295.985 77.0045 250.5 77.0045C205.015 77.0045 161.129 93.7214 127.227 123.949C121.79 128.796 113.438 128.326 108.575 122.908C103.712 117.488 104.171 109.163 109.607 104.315C148.353 69.7689 198.517 50.6711 250.5 50.6711Z" fill="white"/>
<path d="M250.5 116.506C288.53 116.506 325.048 131.371 352.207 157.909C357.414 162.999 357.493 171.335 352.387 176.527C347.281 181.718 338.919 181.797 333.71 176.707C311.489 154.997 281.614 142.839 250.5 142.839C219.386 142.839 189.511 154.997 167.29 176.707C162.081 181.797 153.719 181.718 148.613 176.527C143.507 171.335 143.586 162.999 148.793 157.909C175.952 131.371 212.47 116.506 250.5 116.506Z" fill="white"/>
<path d="M250.5 182.33C271.244 182.33 291.164 190.434 305.978 204.908C311.187 209.998 311.264 218.334 306.158 223.527C301.052 228.72 292.69 228.81 287.481 223.72C277.605 214.07 264.329 208.663 250.5 208.663C236.671 208.663 223.395 214.07 213.519 223.72C208.31 228.81 199.948 228.72 194.842 223.527C189.736 218.334 189.813 209.998 195.022 204.908C209.836 190.434 229.756 182.33 250.5 182.33Z" fill="white"/>
</g>
<defs>
<linearGradient id="paint0_linear_1_2" x1="255.381" y1="12.8581" x2="255.381" y2="494.919" gradientUnits="userSpaceOnUse">
<stop stop-color="#00BBFF"/>
<stop offset="1" stop-color="#00729C"/>
</linearGradient>
<clipPath id="clip0_1_2">
<rect width="512" height="512" fill="white"/>
</clipPath>
</defs>
</svg>
